HIERARCHY
ROOT Hips
{
  OFFSET 144.549 97.6709 51.556
  CHANNELS 6 Xposition Yposition Zposition Zrotation Xrotation Yrotation
  JOINT RightUpLeg
  {
    OFFSET -8.9458 -8.66707 0.101652
    CHANNELS 3 Zrotation Xrotation Yrotation
    JOINT RightLeg
    {
      OFFSET 0 -44.4227 1.3727
      CHANNELS 3 Zrotation Xrotation Yrotation
      JOINT RightFoot
      {
        OFFSET 0.253549 -42.0924 -1.46059
        CHANNELS 3 Zrotation Xrotation Yrotation
        JOINT RightToes
        {
          OFFSET 0.04 -4.41509 8.4991
          CHANNELS 3 Zrotation Xrotation Yrotation
          End Site
          {
            OFFSET -0.08 -0.137448 9.77979
          }
        }
      }
    }
  }
  JOINT Spine
  {
    OFFSET 0 11.8905 0
    CHANNELS 3 Zrotation Xrotation Yrotation
    JOINT Spine1
    {
      OFFSET 0 25.6574 0.127663
      CHANNELS 3 Zrotation Xrotation Yrotation
      JOINT HEad
      {
        OFFSET 0 8.73416 0.011341
        CHANNELS 3 Zrotation Xrotation Yrotation
        End Site
        {
          OFFSET -0.29 12.7742 2.51395
        }
      }
      JOINT LeftShoulder1
      {
        OFFSET 8.99 -0.362252 -0.22
        CHANNELS 3 Zrotation Xrotation Yrotation
        JOINT LeftArm
        {
          OFFSET 10.2827 -0.00338 0.322123
          CHANNELS 3 Zrotation Xrotation Yrotation
          JOINT LeftForeArm
          {
            OFFSET 32.7669 0.099144 -1.42434
            CHANNELS 3 Zrotation Xrotation Yrotation
            JOINT LeftHand
            {
              OFFSET 27.5643 0.085362 1.02216
              CHANNELS 3 Zrotation Xrotation Yrotation
              End Site
              {
                OFFSET 16.7443 -0.6 1.50291
              }
            }
          }
        }
      }
      JOINT RightShoulder
      {
        OFFSET -8.99 -0.362252 -0.22
        CHANNELS 3 Zrotation Xrotation Yrotation
        JOINT RightArm
        {
          OFFSET -10.2827 -0.00338 0.322123
          CHANNELS 3 Zrotation Xrotation Yrotation
          JOINT RightForeArm
          {
            OFFSET -32.8971 0.099144 -1.42434
            CHANNELS 3 Zrotation Xrotation Yrotation
            JOINT RightHand
            {
              OFFSET -27.4921 0.085362 1.02216
              CHANNELS 3 Zrotation Xrotation Yrotation
              End Site
              {
                OFFSET -16.6312 -0.6 1.50291
              }
            }
          }
        }
      }
    }
  }
  JOINT LeftUpLeg
  {
    OFFSET 8.9458 -8.66707 0.101652
    CHANNELS 3 Zrotation Xrotation Yrotation
    JOINT LeftLeg
    {
      OFFSET 0 -44.4227 1.3727
      CHANNELS 3 Zrotation Xrotation Yrotation
      JOINT LeftFoot
      {
        OFFSET -0.253549 -42.0924 -1.46059
        CHANNELS 3 Zrotation Xrotation Yrotation
        JOINT LeftToes
        {
          OFFSET -0.04 -4.41509 8.4991
          CHANNELS 3 Zrotation Xrotation Yrotation
          End Site
          {
            OFFSET 0.08 -0.047448 9.77979
          }
        }
      }
    }
  }
}
MOTION
Frames:	20
Frame Time:	0.0166667
123.563 92.328 63.8309 1.72479 0.444865 -150.796 -17.9803 -3.98387 4.21917 6.6534 50.0921 -9.60773 4.46651 -0.736616 -0.396779 -21.5528 -31.2595 -11.3719 -1.7469 5.75388 4.7107 -2.8792 10.9828 10.2151 -1.61068 0.0848619 -4.87872 1.59028e-015 -1.59028e-015 -0 -65.5872 -17.0698 -14.075 -12.8915 32.1586 -104.575 16.7492 4.17796 -34.9929 19.8626 4.74862 18.917 65.207 -37.0918 38.9138 -14.9716 37.0541 138.495 -9.7169 13.804 -52.0934 2.88843 -31.4803 -1.18748 19.799 19.5231 -55.145 -19.3362 3.09215 1.79374 17.0953 -22.572 0.0239689 
124.223 91.8979 63.3747 1.76082 2.06669 -151.257 -18.6869 -4.45265 3.6475 7.09002 49.1683 -8.02832 4.41003 4.05596 -0.545515 -27.6934 -37.4137 -14.5348 -1.50041 6.31784 4.19832 -2.16048 12.1303 9.11215 -2.25849 -0.649653 -3.42641 -1.59028e-015 1.59028e-015 6.36111e-015 -65.662 -19.4207 -15.5306 -13.775 33.3623 -103.822 16.8922 4.13225 -34.9531 21.4654 4.97731 18.5918 62.8444 -31.1902 34.6735 -15.713 30.1617 142.151 -6.3508 12.4899 -54.597 4.32894 -30.9112 -0.965395 20.5153 21.3476 -55.209 -19.3596 2.57344 1.71137 17.8607 -23.8095 -0.491527 
125.004 91.4229 62.9139 1.73226 3.66572 -151.867 -19.2763 -4.70035 3.00757 8.1853 48.9533 -7.12977 4.47015 8.49932 -0.694676 -34.1308 -42.7551 -18.2896 -1.2633 6.76003 3.79121 -1.56384 13.0435 8.2395 -2.62582 -0.908903 -2.10116 1.59028e-015 -6.36111e-015 3.18055e-015 -65.4942 -21.6425 -16.9257 -14.4821 34.3475 -103.422 17.0532 4.09 -34.8519 22.6233 5.13467 18.3451 61.5053 -25.7933 31.8789 -16.3011 24.1747 144.566 -3.37767 11.1792 -56.6454 5.8718 -30.1604 -0.748631 21.0502 22.8738 -55.022 -19.5793 2.44432 1.71018 18.8957 -25.4399 -1.03828 
125.908 90.9631 62.4554 1.65315 5.11761 -152.655 -19.6632 -4.78829 2.32207 9.4328 49.4033 -6.61953 4.54823 11.8684 -0.81641 -40.0484 -46.7639 -22.1075 -1.06161 7.04579 3.52559 -1.17115 13.6521 7.68637 -2.72453 -0.693705 -0.963325 -1.59028e-015 -3.18055e-015 1.59028e-014 -65.1188 -23.7086 -18.2686 -14.8395 35.1176 -103.48 17.3483 4.02871 -34.5728 23.3581 5.22842 18.1737 60.8345 -21.3989 30.181 -16.8234 19.5167 146.152 -1.03353 10.0521 -58.1627 7.49081 -29.2103 -0.558956 21.2813 23.9512 -54.5336 -19.9037 2.63793 1.77209 20.0519 -27.1643 -1.40143 
126.942 90.5855 62.009 1.55264 6.2933 -153.601 -19.7691 -4.74324 1.63712 10.4174 50.2086 -6.22595 4.48419 13.6905 -0.864501 -44.6561 -49.3004 -25.3964 -0.925334 7.15369 3.41762 -1.01851 13.911 7.48362 -2.60339 -0.0876041 -0.0506521 1.59028e-015 -3.18055e-015 -3.18055e-015 -64.6335 -25.6497 -19.5664 -14.7021 35.6908 -104.085 17.8648 3.9381 -34.0066 23.7235 5.27153 18.0779 60.5512 -18.2908 29.3135 -17.2582 16.4357 147.209 0.540303 9.25045 -59.1573 9.13957 -28.0752 -0.419413 21.1222 24.4465 -53.7509 -20.1504 2.99976 1.85646 21.0971 -28.5442 -1.3704 
128.099 90.3547 61.5847 1.47515 7.09018 -154.64 -19.5316 -4.57277 1.02217 10.8663 50.9182 -5.76579 4.17578 13.8938 -0.813277 -47.585 -50.5599 -27.8058 -0.860027 7.07944 3.45309 -1.08156 13.8094 7.58948 -2.34867 0.764337 0.652372 4.77083e-015 0 -0 -64.1789 -27.5546 -20.8093 -14.0109 36.0847 -105.268 18.6262 3.82713 -33.0982 23.7937 5.28329 18.0729 60.4418 -16.5026 29.0695 -17.5561 14.9142 147.938 1.32876 8.83479 -59.672 10.7692 -26.79 -0.356492 20.5463 24.2604 -52.7049 -20.0423 3.33116 1.90219 21.7559 -29.1222 -0.820446 
129.354 90.3196 61.1879 1.47541 7.45498 -155.686 -18.9136 -4.29045 0.536793 10.6712 51.1145 -5.15883 3.65562 12.7544 -0.687103 -48.9186 -50.888 -29.2478 -0.830555 6.83474 3.58998 -1.2835 13.3706 7.90435 -2.07357 1.69398 1.21755 1.59028e-015 4.77083e-015 -6.36111e-015 -63.9008 -29.5498 -21.9636 -12.8715 36.3238 -106.935 19.554 3.72324 -31.9117 23.6457 5.28417 18.1813 60.3549 -15.8305 29.2723 -17.6929 14.6586 148.448 1.45222 8.76856 -59.7645 12.3451 -25.3947 -0.400494 19.5942 23.338 -51.3973 -19.2636 3.45946 1.84634 21.7823 -28.5926 0.230376 
130.666 90.4982 60.8175 1.60437 7.39259 -156.651 -17.919 -3.93559 0.190125 9.88196 50.5688 -4.39074 3.06099 10.6987 -0.540444 -48.8661 -50.5913 -29.6745 -0.772226 6.44347 3.77318 -1.52215 12.6467 8.3041 -1.89453 2.55163 1.75007 1.59028e-015 -1.59028e-015 3.18055e-015 -63.909 -31.7579 -22.9816 -11.6123 36.4749 -108.795 20.447 3.65547 -30.6975 23.3494 5.28914 18.4138 60.1909 -15.9193 29.7584 -17.6835 15.1991 148.792 1.1319 8.93994 -59.5205 13.8506 -23.9211 -0.578667 18.3664 21.6707 -49.7658 -17.5828 3.29651 1.6555 21.0374 -26.9251 1.60601 
131.986 90.8713 60.4695 1.89057 6.96155 -157.459 -16.6111 -3.57379 -0.0723149 8.67121 49.2996 -3.4747 2.55441 8.13387 -0.419559 -47.568 -49.8452 -29.0072 -0.621613 5.93848 3.95253 -1.70097 11.71 8.67386 -1.89895 3.23596 2.35319 -1.59028e-015 3.18055e-015 3.18055e-015 -64.2423 -34.2345 -23.8191 -10.7649 36.6801 -110.356 20.997 3.62926 -29.919 22.9639 5.30415 18.7566 59.8925 -16.3928 30.3775 -17.5695 16.056 149.003 0.617683 9.21215 -59.0669 15.276 -22.3944 -0.900005 17.0044 19.3016 -47.6958 -14.9997 2.83977 1.34732 19.5255 -24.3516 3.00495 
133.265 91.3938 60.1441 2.32536 6.2594 -158.055 -15.1212 -3.27637 -0.339625 7.29577 47.5141 -2.46301 2.25801 5.41583 -0.343395 -45.2342 -48.7373 -27.3115 -0.349573 5.36034 4.09278 -1.75321 10.6442 8.92884 -2.11777 3.70502 3.09762 8.82781e-032 7.95139e-016 -6.36111e-015 -64.8436 -36.895 -24.446 -10.9589 37.1289 -111.003 20.8231 3.63392 -30.1796 22.5424 5.32788 19.1708 59.4358 -16.9594 31.0033 -17.4004 16.8773 149.117 0.109941 9.4763 -58.5511 16.6018 -20.855 -1.3364 15.6599 16.3594 -45.0866 -11.828 2.11354 0.983059 17.3653 -21.2144 4.09101 
134.468 92.018 59.8486 2.85882 5.4043 -158.396 -13.6322 -3.09276 -0.685554 6.05801 45.4912 -1.47899 2.2154 2.88483 -0.30645 -42.2991 -47.3684 -24.9318 0.0176373 4.75673 4.17293 -1.65375 9.53776 9.02022 -2.51434 3.9696 4.00617 4.41391e-032 -7.95139e-016 3.18055e-015 -65.5495 -39.4699 -24.8397 -12.8339 37.9437 -110.09 19.4792 3.72725 -32.0272 22.1389 5.35706 19.6047 58.8213 -17.4507 31.5462 -17.2174 17.4886 149.167 -0.287632 9.67923 -58.0946 17.7858 -19.395 -1.81308 14.451 13.133 -41.9514 -8.61865 1.10031 0.63778 14.7301 -17.7855 4.65198 
135.574 92.6999 59.5942 3.42764 4.52337 -158.461 -12.3245 -3.03698 -1.13721 5.24746 43.501 -0.691131 2.3798 0.846302 -0.292778 -39.3268 -45.9083 -22.3839 0.453716 4.17058 4.18204 -1.4047 8.47342 8.92993 -2.99717 4.07486 5.05543 -1.59028e-015 -7.95139e-016 3.18055e-015 -66.1153 -41.546 -24.9731 -17.0622 39.0412 -107.005 16.4285 4.19085 -35.6595 21.8087 5.39099 20.0098 58.0704 -17.8091 31.9576 -17.0413 17.8743 149.166 -0.57355 9.82269 -57.7532 18.7789 -18.2342 -2.22336 13.4244 10.2462 -38.4809 -5.89683 -0.307492 0.365299 11.8207 -14.219 4.73905 
136.571 93.4001 59.3874 3.94625 3.73425 -158.249 -11.3484 -3.07976 -1.66288 5.06305 41.7696 -0.248588 2.65101 -0.519365 -0.29039 -36.7577 -44.5451 -20.1147 0.911255 3.64641 4.11665 -1.04789 7.53184 8.66429 -3.45053 4.07906 6.18865 7.95139e-016 -7.95139e-016 -3.18055e-015 -66.3008 -42.7176 -24.8269 -24.3065 40.0099 -101.291 11.1307 5.63137 -40.5206 21.6022 5.43298 20.3529 57.2233 -18.0511 32.2251 -16.87 18.1212 149.109 -0.816863 9.9431 -57.5075 19.5052 -17.7031 -2.46978 12.5393 8.63669 -34.9815 -3.94013 -2.2538 0.184413 8.89108 -10.6786 4.63315 
137.506 94.1465 59.2327 4.30384 3.08633 -157.749 -10.7759 -3.14263 -2.19219 5.54932 40.3119 -0.274879 2.91228 -1.11633 -0.295484 -34.7593 -43.3836 -18.357 1.15552 3.25677 3.96519 -0.649546 6.79336 8.2476 -3.77229 4.03494 7.33255 -1.59028e-015 1.59028e-015 6.36111e-015 -65.9916 -42.7788 -24.4336 -34.5246 40.054 -93.2048 3.5021 8.64076 -44.9304 21.5521 5.48792 20.62 56.3403 -18.2249 32.364 -16.6873 18.352 148.981 -1.10813 10.0858 -57.2883 19.8745 -17.8053 -2.46404 11.688 8.50751 -31.6922 -2.95748 -4.47458 0.0939933 6.25646 -7.46938 4.62 
138.391 94.9128 59.1211 4.45912 2.62456 -157.007 -10.5799 -3.15866 -2.64763 6.61622 39.1578 -0.760774 3.08391 -1.07123 -0.306227 -33.2562 -42.4004 -17.133 1.14681 3.03259 3.73334 -0.245114 6.31141 7.71597 -3.90152 3.97855 8.41207 3.53113e-031 3.18055e-015 -6.36111e-015 -65.2662 -41.8306 -23.8993 -45.6624 38.5057 -84.5979 -5.33777 12.7416 -46.7837 21.6627 5.55851 20.8135 55.499 -18.3742 32.4099 -16.4792 18.6642 148.779 -1.50843 10.2799 -57.0198 19.8813 -18.5563 -2.1779 10.8171 10.1119 -28.7355 -2.8408 -6.71777 0.0484947 4.22205 -4.96983 4.78243 
139.223 95.6495 59.0364 4.41016 2.37025 -156.099 -10.6667 -3.08747 -2.96442 8.06794 38.3286 -1.61208 3.1366 -0.61733 -0.318683 -32.0719 -41.5027 -16.3431 0.919186 2.98354 3.44313 0.153715 6.11631 7.11505 -3.82864 3.92579 9.3624 4.41391e-032 7.95139e-016 -3.18055e-015 -64.3505 -40.2446 -23.3595 -54.3513 35.9301 -78.0464 -13.0141 16.1983 -45.8764 21.9057 5.64198 20.9436 54.79 -18.5178 32.415 -16.249 19.0995 148.51 -2.02494 10.5265 -56.6546 19.5757 -19.8134 -1.64156 9.94438 13.3632 -26.0828 -3.35916 -8.71325 0.00591203 2.95328 -3.40659 5.01435 
139.964 96.2667 58.9599 4.21064 2.3461 -155.14 -10.898 -2.94001 -3.11166 9.67206 37.9168 -2.67479 3.08179 -0.0362894 -0.327079 -31.0678 -40.6289 -15.8582 0.652103 3.08524 3.13528 0.568145 6.2087 6.49519 -3.58698 3.8767 10.1374 -7.95139e-016 0 1.27222e-014 -63.5127 -38.5166 -22.9119 -58.6767 33.8519 -74.6484 -17.1142 17.8071 -44.3957 22.2254 5.72908 21.0203 54.3077 -18.6453 32.4446 -16.0214 19.6431 148.201 -2.60988 10.7998 -56.1941 19.0744 -21.4151 -0.937354 9.13982 18.1438 -23.6539 -4.18236 -10.4178 -0.0544049 2.37611 -2.69324 5.20176 
140.591 96.7032 58.8808 3.93918 2.54705 -154.236 -11.1116 -2.74895 -3.09784 11.1999 37.946 -3.81169 2.9428 0.491412 -0.327861 -30.2193 -39.8159 -15.5759 0.495812 3.3065 2.84686 1.03146 6.56914 5.90574 -3.23192 3.82083 10.7139 1.59028e-015 -3.18055e-015 -6.36111e-015 -62.9789 -37.0971 -22.587 -58.4021 33.3933 -74.2855 -16.4033 17.4761 -44.3058 22.5519 5.80545 21.047 54.1382 -18.7254 32.5695 -15.837 20.2477 147.885 -3.18397 11.0608 -55.6848 18.5216 -23.0625 -0.161941 8.43752 23.9573 -21.3761 -5.04992 -11.8408 -0.130713 2.20866 -2.48069 5.33976 
141.112 96.9485 58.7936 3.62561 2.92933 -153.466 -11.2052 -2.52527 -2.94281 12.4592 38.3344 -4.93897 2.74239 0.903102 -0.320703 -29.6127 -39.1936 -15.4482 0.434218 3.6351 2.60306 1.54024 7.1711 5.39045 -2.81904 3.74368 11.0918 0 1.59028e-015 -0 -62.8908 -36.268 -22.3551 -53.3918 34.7782 -77.108 -10.8568 15.1738 -45.564 22.8178 5.85473 21.0176 54.3446 -18.7187 32.8515 -15.737 20.8629 147.593 -3.66795 11.2742 -55.1979 17.9866 -24.4198 0.590918 7.77784 30.1284 -19.1924 -5.78209 -12.9976 -0.210428 2.14321 -2.39162 5.47612 
141.528 96.9883 58.7002 3.31632 3.45534 -152.891 -11.1085 -2.28159 -2.6771 13.3386 39.0084 -5.99947 2.48494 1.1547 -0.305232 -29.3852 -38.9232 -15.4794 0.511759 4.03929 2.42208 2.09284 7.96427 4.9808 -2.38821 3.6306 11.2897 7.95139e-016 -7.95139e-016 -3.18055e-015 -63.288 -36.0901 -22.1454 -43.2157 37.1498 -83.8559 -1.45526 10.9031 -45.9495 22.9742 5.86281 20.9196 54.9497 -18.5919 33.3248 -15.7473 21.4561 147.344 -4.0102 11.4203 -54.8006 17.5372 -25.3366 1.28043 7.0455 36.258 -17.0536 -6.25606 -13.9794 -0.281847 2.04084 -2.25993 5.59691 
